<?xml version="1.0" standalone="no"?>
<!DOCTYPE svg PUBLIC "-//W3C//DTD SVG 20010904//EN"
 "http://www.w3.org/TR/2001/REC-SVG-20010904/DTD/svg10.dtd">
<svg version="1.0" xmlns="http://www.w3.org/2000/svg"
 width="260.000000pt" height="260.000000pt" viewBox="0 0 260.000000 260.000000"
 preserveAspectRatio="xMidYMid meet">
<metadata>
Created by potrace 1.11, written by Peter Selinger 2001-2013
</metadata>
<g transform="translate(0.000000,260.000000) scale(0.100000,-0.100000)"
fill="#000000" stroke="none">
<path d="M910 1970 c-255 -198 -423 -373 -524 -544 -26 -45 -27 -48 -10 -67 9
-10 23 -19 31 -19 16 0 58 25 92 54 l24 21 -17 -30 c-9 -16 -52 -88 -97 -160
-44 -71 -102 -171 -129 -221 -28 -51 -56 -96 -63 -101 -6 -5 -48 -20 -92 -32
-116 -32 -124 -36 -118 -60 3 -11 13 -23 23 -26 19 -6 240 4 251 11 4 2 49 6
100 9 52 4 105 8 118 10 73 13 369 20 768 19 366 0 453 2 457 13 10 24 -6 42
-42 50 -50 10 -835 10 -992 0 -200 -12 -263 -17 -298 -22 -28 -4 -34 -1 -43
23 -13 34 -1 59 123 266 83 138 300 466 348 526 11 14 63 81 116 150 53 69
101 131 106 138 15 18 -9 42 -41 42 -16 0 -51 -20 -91 -50z m-192 -282 c-14
-18 -49 -67 -78 -108 -29 -41 -56 -78 -61 -83 -5 -4 -7 -4 -4 -1 2 4 0 15 -5
24 -8 15 6 35 76 109 89 94 115 115 72 59z"/>
<path d="M974 1465 c-14 -27 -16 -37 -6 -47 9 -9 16 -8 30 8 27 28 35 56 20
66 -20 12 -24 10 -44 -27z"/>
<path d="M891 1195 c-112 -64 -110 -135 4 -167 25 -7 133 -11 285 -10 193 0
250 -2 267 -13 33 -22 110 6 177 66 l35 30 53 -16 c38 -11 119 -17 273 -21
121 -3 254 -7 295 -9 154 -7 248 -7 259 -1 15 9 14 31 -1 44 -7 5 -92 13 -188
16 -251 10 -411 16 -521 20 -69 3 -106 9 -135 23 -47 24 -56 22 -111 -28 -24
-22 -47 -39 -53 -39 -5 0 0 20 12 44 24 51 19 76 -16 76 -31 0 -59 -35 -75
-92 l-12 -43 -230 -3 -230 -4 21 37 c27 48 31 76 12 98 -21 24 -70 21 -121 -8z
m37 -80 c-8 -18 -14 -22 -19 -13 -4 7 -3 18 3 25 18 22 28 14 16 -12z"/>
</g>
</svg>
